<svg width="2525" height="595" viewBox="0 0 2525 595" fill="none" xmlns="http://www.w3.org/2000/svg">
<path d="M526.801 271.099L525.712 271.13C514.744 271.689 503.77 272.137 492.792 272.538C473.888 168.116 392.44 90.8287 287.951 79.1652C287.846 79.1544 287.742 79.1436 287.637 79.1349C287.131 78.9291 286.609 78.7471 286.086 78.5792L286.097 68.8958C286.097 58.1237 277.825 50 266.849 50C255.877 50 247.598 58.1237 247.598 68.8958L247.593 77.1874C153.06 85.3772 68.3391 171.076 50.0391 245.957C46.0975 262.079 43.8423 278.557 43.3094 295.067C34.6517 294.756 26.9537 294.293 19.5503 293.653C8.56374 292.712 0.481175 300.306 0.0186643 311.03C-0.386439 320.447 5.80817 331.03 18.0923 332.097C26.541 332.834 35.3222 333.329 45.2916 333.632C53.7674 392.677 86.4171 442.173 137.816 473.574C171.093 493.904 214.254 505.427 259.856 506.235C260.709 513.55 261.608 520.866 262.521 528.191C263.976 539.803 273.942 545.879 283.043 545.879C288.554 545.879 293.608 543.724 296.924 539.962C300.148 536.32 301.555 531.392 300.89 526.089C299.982 518.862 299.103 511.64 298.254 504.418C396.611 493.351 498.471 431.22 497.057 317.243C497.034 315.197 496.98 313.102 496.892 310.897C506.782 310.517 516.676 310.105 526.567 309.61C537.358 309.06 545.284 300.325 545.003 289.292C544.737 278.756 537.086 271.099 526.801 271.099ZM294.424 466.425C292.367 441.183 291.872 419.805 292.846 399.717C293.099 394.487 291.399 389.662 288.043 386.142C284.584 382.513 279.513 380.433 274.136 380.433C264.758 380.433 254.959 386.774 254.368 398.898C253.348 419.82 253.864 442.025 256.001 468.156C159.372 464.741 101.04 406.076 85.8138 347.915C84.6375 343.425 83.7493 338.657 83.1579 333.669C114.781 332.74 149.139 329.49 190.35 323.555C199.879 322.179 206.064 314.583 205.382 305.084C204.645 294.804 195.685 284.081 182.196 285.993C145.248 291.315 113.82 294.27 84.2281 295.184C97.2834 213.542 172.04 129.553 245.997 115.693C246.494 115.602 246.995 115.514 247.507 115.434C247.356 150.922 246.963 178.868 246.245 205.061C246.105 210.265 247.89 215.047 251.281 218.526C254.778 222.121 259.848 224.183 265.2 224.183C276.049 224.183 284.447 216.161 284.744 205.524C285.448 179.642 285.839 152.141 285.998 117.44C286.021 117.44 286.048 117.445 286.069 117.445C371.719 127.007 442.343 192.051 457.424 273.768C430.072 274.709 402.004 275.784 374.238 277.891C361.944 278.82 355.697 289.32 356.049 298.731C356.456 309.517 364.487 317.179 375.509 316.35C403.659 314.22 432.365 313.142 460.317 312.185C459.905 325.793 458.013 339.4 454.675 352.744C437.822 420.112 363.48 457.796 294.424 466.425Z" fill="#0E39F2"/>
<mask id="path-2-inside-1_436_18" fill="white">
<path d="M748.056 366.816C748.056 373.76 745.328 377.232 739.872 377.232C735.739 377.232 732.019 374.835 728.712 370.04L645.136 248.272V366.568C645.136 373.677 641.747 377.232 634.968 377.232C628.189 377.232 624.8 373.677 624.8 366.568V216.28C624.8 209.667 627.859 206.36 633.976 206.36C638.275 206.36 641.995 208.592 645.136 213.056L727.72 332.84V217.52C727.72 210.411 731.109 206.856 737.888 206.856C744.667 206.856 748.056 210.411 748.056 217.52V366.816Z"/>
</mask>
<path d="M748.056 366.816C748.056 373.76 745.328 377.232 739.872 377.232C735.739 377.232 732.019 374.835 728.712 370.04L645.136 248.272V366.568C645.136 373.677 641.747 377.232 634.968 377.232C628.189 377.232 624.8 373.677 624.8 366.568V216.28C624.8 209.667 627.859 206.36 633.976 206.36C638.275 206.36 641.995 208.592 645.136 213.056L727.72 332.84V217.52C727.72 210.411 731.109 206.856 737.888 206.856C744.667 206.856 748.056 210.411 748.056 217.52V366.816Z" fill="#0E39F2"/>
<path d="M728.712 370.04L675.945 406.257L675.986 406.316L676.027 406.375L728.712 370.04ZM645.136 248.272L697.903 212.055L581.136 41.929V248.272H645.136ZM645.136 213.056L697.827 176.729L697.653 176.476L697.476 176.224L645.136 213.056ZM727.72 332.84L675.029 369.167L791.72 538.422V332.84H727.72ZM748.056 366.816H684.056C684.056 363.649 684.384 349.471 695.686 335.087C709.296 317.765 728.071 313.232 739.872 313.232V377.232V441.232C757.129 441.232 779.996 434.963 796.335 414.169C810.364 396.313 812.056 376.927 812.056 366.816H748.056ZM739.872 377.232V313.232C750.981 313.232 760.939 316.668 768.651 321.637C775.748 326.211 779.696 331.237 781.398 333.705L728.712 370.04L676.027 406.375C686.007 420.847 706.862 441.232 739.872 441.232V377.232ZM728.712 370.04L781.479 333.823L697.903 212.055L645.136 248.272L592.369 284.489L675.945 406.257L728.712 370.04ZM645.136 248.272H581.136V366.568H645.136H709.136V248.272H645.136ZM645.136 366.568H581.136C581.136 360.999 582.413 344.94 596.275 330.401C610.681 315.293 627.695 313.232 634.968 313.232V377.232V441.232C649.02 441.232 671.118 437.394 688.913 418.731C706.165 400.638 709.136 379.247 709.136 366.568H645.136ZM634.968 377.232V313.232C642.242 313.232 659.256 315.293 673.661 330.401C687.524 344.94 688.8 360.999 688.8 366.568H624.8H560.8C560.8 379.247 563.771 400.638 581.023 418.731C598.818 437.394 620.916 441.232 634.968 441.232V377.232ZM624.8 366.568H688.8V216.28H624.8H560.8V366.568H624.8ZM624.8 216.28H688.8C688.8 221.654 687.661 237.613 674.076 252.299C659.621 267.927 642.119 270.36 633.976 270.36V206.36V142.36C619.716 142.36 597.626 146.447 580.112 165.381C563.469 183.374 560.8 204.293 560.8 216.28H624.8ZM633.976 206.36V270.36C624.414 270.36 615.053 267.708 607.062 262.914C599.557 258.41 595.082 253.136 592.797 249.888L645.136 213.056L697.476 176.224C685.958 159.857 664.672 142.36 633.976 142.36V206.36ZM645.136 213.056L592.445 249.383L675.029 369.167L727.72 332.84L780.411 296.513L697.827 176.729L645.136 213.056ZM727.72 332.84H791.72V217.52H727.72H663.72V332.84H727.72ZM727.72 217.52H791.72C791.72 223.089 790.444 239.148 776.581 253.687C762.176 268.795 745.162 270.856 737.888 270.856V206.856V142.856C723.836 142.856 701.738 146.694 683.943 165.357C666.691 183.45 663.72 204.841 663.72 217.52H727.72ZM737.888 206.856V270.856C730.615 270.856 713.601 268.795 699.195 253.687C685.333 239.148 684.056 223.089 684.056 217.52H748.056H812.056C812.056 204.841 809.085 183.45 791.833 165.357C774.038 146.694 751.94 142.856 737.888 142.856V206.856ZM748.056 217.52H684.056V366.816H748.056H812.056V217.52H748.056Z" fill="#0E39F2" mask="url(#path-2-inside-1_436_18)"/>
<mask id="path-4-inside-2_436_18" fill="white">
<path d="M884.758 307.296C884.758 325.483 880.212 341.437 871.118 355.16C861.198 370.04 848.55 377.48 833.174 377.48C817.798 377.48 805.15 369.957 795.23 354.912C786.137 341.189 781.59 325.317 781.59 307.296C781.59 289.275 786.302 273.485 795.726 259.928C805.812 245.213 818.294 237.856 833.174 237.856C849.046 237.856 861.86 245.213 871.614 259.928C880.377 273.155 884.758 288.944 884.758 307.296ZM864.918 307.296C864.918 294.235 862.521 283.24 857.726 274.312C851.94 263.565 843.756 258.192 833.174 258.192C823.089 258.192 815.07 263.565 809.118 274.312C803.993 283.571 801.43 294.565 801.43 307.296C801.43 320.027 803.993 331.104 809.118 340.528C814.905 351.44 822.924 356.896 833.174 356.896C843.425 356.896 851.444 351.44 857.23 340.528C862.356 331.104 864.918 320.027 864.918 307.296Z"/>
</mask>
<path d="M884.758 307.296C884.758 325.483 880.212 341.437 871.118 355.16C861.198 370.04 848.55 377.48 833.174 377.48C817.798 377.48 805.15 369.957 795.23 354.912C786.137 341.189 781.59 325.317 781.59 307.296C781.59 289.275 786.302 273.485 795.726 259.928C805.812 245.213 818.294 237.856 833.174 237.856C849.046 237.856 861.86 245.213 871.614 259.928C880.377 273.155 884.758 288.944 884.758 307.296ZM864.918 307.296C864.918 294.235 862.521 283.24 857.726 274.312C851.94 263.565 843.756 258.192 833.174 258.192C823.089 258.192 815.07 263.565 809.118 274.312C803.993 283.571 801.43 294.565 801.43 307.296C801.43 320.027 803.993 331.104 809.118 340.528C814.905 351.44 822.924 356.896 833.174 356.896C843.425 356.896 851.444 351.44 857.23 340.528C862.356 331.104 864.918 320.027 864.918 307.296Z" fill="#0E39F2"/>
<path d="M871.118 355.16L924.369 390.661L924.419 390.587L924.468 390.512L871.118 355.16ZM795.23 354.912L848.661 319.683L848.621 319.621L848.58 319.56L795.23 354.912ZM795.726 259.928L848.277 296.457L848.398 296.284L848.517 296.11L795.726 259.928ZM871.614 259.928L924.968 224.581L924.963 224.573L924.957 224.566L871.614 259.928ZM857.726 274.312L914.11 244.032L914.093 244.001L914.076 243.97L857.726 274.312ZM809.118 274.312L753.132 243.304L753.125 243.316L809.118 274.312ZM809.118 340.528L865.66 310.544L865.502 310.246L865.341 309.951L809.118 340.528ZM857.23 340.528L801.007 309.951L800.846 310.246L800.689 310.544L857.23 340.528ZM884.758 307.296H820.758C820.758 314.278 819.196 317.653 817.768 319.808L871.118 355.16L924.468 390.512C941.227 365.222 948.758 336.688 948.758 307.296H884.758ZM871.118 355.16L817.867 319.659C817.115 320.787 818.115 318.87 821.743 316.736C825.733 314.389 830.021 313.48 833.174 313.48V377.48V441.48C873.704 441.48 904.826 419.976 924.369 390.661L871.118 355.16ZM833.174 377.48V313.48C836.463 313.48 840.845 314.437 844.872 316.832C848.514 318.998 849.472 320.912 848.661 319.683L795.23 354.912L741.799 390.141C761.198 419.564 792.318 441.48 833.174 441.48V377.48ZM795.23 354.912L848.58 319.56C847.088 317.308 845.59 313.984 845.59 307.296H781.59H717.59C717.59 336.65 725.186 365.071 741.88 390.264L795.23 354.912ZM781.59 307.296H845.59C845.59 301.081 846.991 298.307 848.277 296.457L795.726 259.928L743.175 223.399C725.613 248.664 717.59 277.468 717.59 307.296H781.59ZM795.726 259.928L848.517 296.11C849.46 294.734 848.622 296.463 845.149 298.51C841.27 300.796 836.841 301.856 833.174 301.856V237.856V173.856C792.803 173.856 762.241 195.579 742.936 223.746L795.726 259.928ZM833.174 237.856V301.856C830.785 301.856 826.829 301.177 822.82 298.875C819.076 296.726 817.828 294.623 818.271 295.29L871.614 259.928L924.957 224.566C904.914 194.331 873.193 173.856 833.174 173.856V237.856ZM871.614 259.928L818.261 295.275C819.042 296.454 820.758 299.496 820.758 307.296H884.758H948.758C948.758 278.392 941.712 249.855 924.968 224.581L871.614 259.928ZM864.918 307.296H928.918C928.918 286.635 925.142 264.574 914.11 244.032L857.726 274.312L801.343 304.592C800.637 303.279 800.519 302.566 800.589 302.889C800.67 303.26 800.918 304.636 800.918 307.296H864.918ZM857.726 274.312L914.076 243.97C899.203 216.348 871.377 194.192 833.174 194.192V258.192V322.192C827.037 322.192 819.312 320.442 812.122 315.721C805.393 311.303 802.301 306.372 801.376 304.654L857.726 274.312ZM833.174 258.192V194.192C794.368 194.192 767.447 217.457 753.132 243.304L809.118 274.312L865.105 305.32C864.46 306.484 861.654 311.08 855.223 315.389C848.205 320.092 840.217 322.192 833.174 322.192V258.192ZM809.118 274.312L753.125 243.316C741.779 263.812 737.43 285.915 737.43 307.296H801.43H865.43C865.43 305.211 865.641 304.204 865.681 304.03C865.711 303.905 865.596 304.433 865.111 305.308L809.118 274.312ZM801.43 307.296H737.43C737.43 328.715 741.792 350.69 752.895 371.105L809.118 340.528L865.341 309.951C865.703 310.616 865.761 310.966 865.705 310.727C865.64 310.443 865.43 309.375 865.43 307.296H801.43ZM809.118 340.528L752.577 370.512C766.736 397.214 793.932 420.896 833.174 420.896V356.896V292.896C840.119 292.896 848.247 294.973 855.475 299.891C862.111 304.406 864.975 309.253 865.66 310.544L809.118 340.528ZM833.174 356.896V420.896C872.417 420.896 899.612 397.214 913.772 370.512L857.23 340.528L800.689 310.544C801.373 309.253 804.238 304.406 810.873 299.891C818.101 294.973 826.229 292.896 833.174 292.896V356.896ZM857.23 340.528L913.453 371.105C924.556 350.69 928.918 328.715 928.918 307.296H864.918H800.918C800.918 309.375 800.709 310.443 800.643 310.727C800.588 310.966 800.645 310.616 801.007 309.951L857.23 340.528Z" fill="#0E39F2" mask="url(#path-4-inside-2_436_18)"/>
<mask id="path-6-inside-3_436_18" fill="white">
<path d="M1007.66 302.832C1007.66 325.152 1003.44 341.933 995.01 353.176C987.736 362.765 976.493 369.048 961.282 372.024C951.528 374.008 935.49 375 913.17 375V237.608C946.237 237.608 968.64 240.501 980.378 246.288C998.565 255.216 1007.66 274.064 1007.66 302.832ZM988.066 302.832C988.066 283.653 982.28 270.84 970.706 264.392C963.266 260.093 950.701 257.944 933.01 257.944V354.416C950.701 354.251 963.266 351.688 970.706 346.728C982.28 339.288 988.066 324.656 988.066 302.832Z"/>
</mask>
<path d="M1007.66 302.832C1007.66 325.152 1003.44 341.933 995.01 353.176C987.736 362.765 976.493 369.048 961.282 372.024C951.528 374.008 935.49 375 913.17 375V237.608C946.237 237.608 968.64 240.501 980.378 246.288C998.565 255.216 1007.66 274.064 1007.66 302.832ZM988.066 302.832C988.066 283.653 982.28 270.84 970.706 264.392C963.266 260.093 950.701 257.944 933.01 257.944V354.416C950.701 354.251 963.266 351.688 970.706 346.728C982.28 339.288 988.066 324.656 988.066 302.832Z" fill="#0E39F2"/>
<path d="M995.01 353.176L1046 391.857L1046.1 391.717L1046.21 391.576L995.01 353.176ZM961.282 372.024L948.994 309.215L948.76 309.261L948.527 309.308L961.282 372.024ZM913.17 375H849.17V439H913.17V375ZM913.17 237.608V173.608H849.17V237.608H913.17ZM980.378 246.288L952.081 303.692L952.128 303.715L952.175 303.739L980.378 246.288ZM970.706 264.392L938.689 319.807L939.121 320.057L939.557 320.3L970.706 264.392ZM933.01 257.944V193.944H869.01V257.944H933.01ZM933.01 354.416H869.01V419.017L933.608 418.413L933.01 354.416ZM970.706 346.728L936.098 292.893L935.649 293.181L935.205 293.477L970.706 346.728ZM1007.66 302.832H943.658C943.658 310.166 942.945 314.496 942.425 316.564C941.924 318.558 941.89 317.336 943.81 314.776L995.01 353.176L1046.21 391.576C1066.57 364.436 1071.66 331.434 1071.66 302.832H1007.66ZM995.01 353.176L944.022 314.495C946.085 311.776 948.366 310.07 949.902 309.212C951.244 308.461 951.268 308.77 948.994 309.215L961.282 372.024L973.571 434.833C999.644 429.732 1026.75 417.234 1046 391.857L995.01 353.176ZM961.282 372.024L948.527 309.308C945.589 309.906 935.144 311 913.17 311V375V439C935.836 439 957.466 438.11 974.038 434.74L961.282 372.024ZM913.17 375H977.17V237.608H913.17H849.17V375H913.17ZM913.17 237.608V301.608C928.095 301.608 939.022 302.275 946.575 303.251C955.088 304.35 955.507 305.381 952.081 303.692L980.378 246.288L1008.68 188.884C993.511 181.408 976.859 178.099 962.97 176.305C948.12 174.387 931.312 173.608 913.17 173.608V237.608ZM980.378 246.288L952.175 303.739C950.5 302.916 948.513 301.583 946.653 299.689C944.811 297.814 943.732 296.039 943.196 294.93C942.702 293.905 942.837 293.8 943.089 295.121C943.346 296.464 943.658 298.946 943.658 302.832H1007.66H1071.66C1071.66 261.398 1057.54 212.873 1008.58 188.837L980.378 246.288ZM988.066 302.832H1052.07C1052.07 271.977 1042.1 230.908 1001.86 208.484L970.706 264.392L939.557 320.3C936.443 318.565 933.403 316.201 930.761 313.269C928.146 310.368 926.444 307.495 925.399 305.18C923.454 300.874 924.066 299.21 924.066 302.832H988.066ZM970.706 264.392L1002.72 208.977C979.702 195.675 952.368 193.944 933.01 193.944V257.944V321.944C936.162 321.944 938.733 322.041 940.782 322.186C942.848 322.333 944.186 322.516 944.912 322.64C945.664 322.768 945.455 322.783 944.532 322.485C943.638 322.197 941.504 321.434 938.689 319.807L970.706 264.392ZM933.01 257.944H869.01V354.416H933.01H997.01V257.944H933.01ZM933.01 354.416L933.608 418.413C953.645 418.226 982.395 415.854 1006.21 399.979L970.706 346.728L935.205 293.477C938.099 291.548 940.431 290.548 941.639 290.094C942.857 289.636 943.373 289.567 942.913 289.661C942.475 289.75 941.405 289.936 939.57 290.101C937.751 290.265 935.388 290.391 932.412 290.419L933.01 354.416ZM970.706 346.728L1005.31 400.563C1044.12 375.62 1052.07 333.144 1052.07 302.832H988.066H924.066C924.066 308.586 923.235 309.107 924.211 306.637C924.772 305.22 925.907 302.891 927.997 300.234C930.137 297.513 932.878 294.962 936.098 292.893L970.706 346.728Z" fill="#0E39F2" mask="url(#path-6-inside-3_436_18)"/>
<mask id="path-8-inside-4_436_18" fill="white">
<path d="M1115.06 375H1033.96V237.608H1115.06C1121.83 237.608 1125.22 240.997 1125.22 247.776C1125.22 254.555 1121.83 257.944 1115.06 257.944H1053.55V288.944H1111.34C1117.95 288.944 1121.26 292.333 1121.26 299.112C1121.26 306.056 1117.95 309.528 1111.34 309.528H1053.55V354.416H1115.06C1121.83 354.416 1125.22 357.805 1125.22 364.584C1125.22 371.528 1121.83 375 1115.06 375Z"/>
</mask>
<path d="M1115.06 375H1033.96V237.608H1115.06C1121.83 237.608 1125.22 240.997 1125.22 247.776C1125.22 254.555 1121.83 257.944 1115.06 257.944H1053.55V288.944H1111.34C1117.95 288.944 1121.26 292.333 1121.26 299.112C1121.26 306.056 1117.95 309.528 1111.34 309.528H1053.55V354.416H1115.06C1121.83 354.416 1125.22 357.805 1125.22 364.584C1125.22 371.528 1121.83 375 1115.06 375Z" fill="#0E39F2"/>
<path d="M1033.96 375H969.96V439H1033.96V375ZM1033.96 237.608V173.608H969.96V237.608H1033.96ZM1053.55 257.944V193.944H989.552V257.944H1053.55ZM1053.55 288.944H989.552V352.944H1053.55V288.944ZM1053.55 309.528V245.528H989.552V309.528H1053.55ZM1053.55 354.416H989.552V418.416H1053.55V354.416ZM1115.06 375V311H1033.96V375V439H1115.06V375ZM1033.96 375H1097.96V237.608H1033.96H969.96V375H1033.96ZM1033.96 237.608V301.608H1115.06V237.608V173.608H1033.96V237.608ZM1115.06 237.608V301.608C1108.58 301.608 1091.97 299.946 1077.43 285.405C1062.89 270.864 1061.22 254.252 1061.22 247.776H1125.22H1189.22C1189.22 234.521 1185.87 212.825 1167.94 194.895C1150.01 176.965 1128.31 173.608 1115.06 173.608V237.608ZM1125.22 247.776H1061.22C1061.22 241.3 1062.89 224.688 1077.43 210.147C1091.97 195.606 1108.58 193.944 1115.06 193.944V257.944V321.944C1128.31 321.944 1150.01 318.587 1167.94 300.657C1185.87 282.727 1189.22 261.031 1189.22 247.776H1125.22ZM1115.06 257.944V193.944H1053.55V257.944V321.944H1115.06V257.944ZM1053.55 257.944H989.552V288.944H1053.55H1117.55V257.944H1053.55ZM1053.55 288.944V352.944H1111.34V288.944V224.944H1053.55V288.944ZM1111.34 288.944V352.944C1104.37 352.944 1087.49 351.061 1072.97 336.179C1058.73 321.59 1057.26 305.197 1057.26 299.112H1121.26H1185.26C1185.26 286.249 1182.13 264.772 1164.59 246.793C1146.76 228.522 1124.91 224.944 1111.34 224.944V288.944ZM1121.26 299.112H1057.26C1057.26 293.477 1058.54 277.367 1072.43 262.786C1086.87 247.621 1103.96 245.528 1111.34 245.528V309.528V373.528C1125.33 373.528 1147.37 369.699 1165.12 351.062C1182.31 333.009 1185.26 311.691 1185.26 299.112H1121.26ZM1111.34 309.528V245.528H1053.55V309.528V373.528H1111.34V309.528ZM1053.55 309.528H989.552V354.416H1053.55H1117.55V309.528H1053.55ZM1053.55 354.416V418.416H1115.06V354.416V290.416H1053.55V354.416ZM1115.06 354.416V418.416C1108.58 418.416 1091.97 416.754 1077.43 402.213C1062.89 387.672 1061.22 371.06 1061.22 364.584H1125.22H1189.22C1189.22 351.329 1185.87 329.633 1167.94 311.703C1150.01 293.773 1128.31 290.416 1115.06 290.416V354.416ZM1125.22 364.584H1061.22C1061.22 358.573 1062.68 342.237 1076.89 327.69C1091.36 312.857 1108.18 311 1115.06 311V375V439C1128.71 439 1150.61 435.407 1168.48 417.102C1186.07 399.083 1189.22 377.539 1189.22 364.584H1125.22Z" fill="#0E39F2" mask="url(#path-8-inside-4_436_18)"/>
<mask id="path-10-inside-5_436_18" fill="white">
<path d="M1374.83 366.816C1374.83 373.76 1372.1 377.232 1366.64 377.232C1362.51 377.232 1358.79 374.835 1355.48 370.04L1271.91 248.272V366.568C1271.91 373.677 1268.52 377.232 1261.74 377.232C1254.96 377.232 1251.57 373.677 1251.57 366.568V216.28C1251.57 209.667 1254.63 206.36 1260.75 206.36C1265.04 206.36 1268.76 208.592 1271.91 213.056L1354.49 332.84V217.52C1354.49 210.411 1357.88 206.856 1364.66 206.856C1371.44 206.856 1374.83 210.411 1374.83 217.52V366.816Z"/>
</mask>
<path d="M1374.83 366.816C1374.83 373.76 1372.1 377.232 1366.64 377.232C1362.51 377.232 1358.79 374.835 1355.48 370.04L1271.91 248.272V366.568C1271.91 373.677 1268.52 377.232 1261.74 377.232C1254.96 377.232 1251.57 373.677 1251.57 366.568V216.28C1251.57 209.667 1254.63 206.36 1260.75 206.36C1265.04 206.36 1268.76 208.592 1271.91 213.056L1354.49 332.84V217.52C1354.49 210.411 1357.88 206.856 1364.66 206.856C1371.44 206.856 1374.83 210.411 1374.83 217.52V366.816Z" fill="#0E39F2"/>
<path d="M1355.48 370.04L1302.72 406.257L1302.76 406.316L1302.8 406.375L1355.48 370.04ZM1271.91 248.272L1324.67 212.055L1207.91 41.929V248.272H1271.91ZM1271.91 213.056L1324.6 176.729L1324.42 176.476L1324.25 176.224L1271.91 213.056ZM1354.49 332.84L1301.8 369.167L1418.49 538.422V332.84H1354.49ZM1374.83 366.816H1310.83C1310.83 363.649 1311.15 349.471 1322.46 335.087C1336.07 317.765 1354.84 313.232 1366.64 313.232V377.232V441.232C1383.9 441.232 1406.77 434.963 1423.1 414.169C1437.13 396.313 1438.83 376.927 1438.83 366.816H1374.83ZM1366.64 377.232V313.232C1377.75 313.232 1387.71 316.668 1395.42 321.637C1402.52 326.211 1406.47 331.237 1408.17 333.705L1355.48 370.04L1302.8 406.375C1312.78 420.847 1333.63 441.232 1366.64 441.232V377.232ZM1355.48 370.04L1408.25 333.823L1324.67 212.055L1271.91 248.272L1219.14 284.489L1302.72 406.257L1355.48 370.04ZM1271.91 248.272H1207.91V366.568H1271.91H1335.91V248.272H1271.91ZM1271.91 366.568H1207.91C1207.91 360.999 1209.18 344.94 1223.04 330.401C1237.45 315.293 1254.46 313.232 1261.74 313.232V377.232V441.232C1275.79 441.232 1297.89 437.394 1315.68 418.731C1332.93 400.638 1335.91 379.247 1335.91 366.568H1271.91ZM1261.74 377.232V313.232C1269.01 313.232 1286.03 315.293 1300.43 330.401C1314.29 344.94 1315.57 360.999 1315.57 366.568H1251.57H1187.57C1187.57 379.247 1190.54 400.638 1207.79 418.731C1225.59 437.394 1247.69 441.232 1261.74 441.232V377.232ZM1251.57 366.568H1315.57V216.28H1251.57H1187.57V366.568H1251.57ZM1251.57 216.28H1315.57C1315.57 221.654 1314.43 237.613 1300.85 252.299C1286.39 267.927 1268.89 270.36 1260.75 270.36V206.36V142.36C1246.49 142.36 1224.4 146.447 1206.88 165.381C1190.24 183.374 1187.57 204.293 1187.57 216.28H1251.57ZM1260.75 206.36V270.36C1251.18 270.36 1241.82 267.708 1233.83 262.914C1226.33 258.41 1221.85 253.136 1219.57 249.888L1271.91 213.056L1324.25 176.224C1312.73 159.857 1291.44 142.36 1260.75 142.36V206.36ZM1271.91 213.056L1219.22 249.383L1301.8 369.167L1354.49 332.84L1407.18 296.513L1324.6 176.729L1271.91 213.056ZM1354.49 332.84H1418.49V217.52H1354.49H1290.49V332.84H1354.49ZM1354.49 217.52H1418.49C1418.49 223.089 1417.21 239.148 1403.35 253.687C1388.95 268.795 1371.93 270.856 1364.66 270.856V206.856V142.856C1350.61 142.856 1328.51 146.694 1310.71 165.357C1293.46 183.45 1290.49 204.841 1290.49 217.52H1354.49ZM1364.66 206.856V270.856C1357.38 270.856 1340.37 268.795 1325.96 253.687C1312.1 239.148 1310.83 223.089 1310.83 217.52H1374.83H1438.83C1438.83 204.841 1435.85 183.45 1418.6 165.357C1400.81 146.694 1378.71 142.856 1364.66 142.856V206.856ZM1374.83 217.52H1310.83V366.816H1374.83H1438.83V217.52H1374.83Z" fill="#0E39F2" mask="url(#path-10-inside-5_436_18)"/>
<mask id="path-12-inside-6_436_18" fill="white">
<path d="M1524.18 362.848C1524.67 364.171 1524.92 365.493 1524.92 366.816C1524.92 369.627 1523.85 372.024 1521.7 374.008C1519.55 375.827 1517.07 376.736 1514.26 376.736C1509.96 376.736 1506.98 374.669 1505.33 370.536L1497.64 351.192H1437.13L1429.94 370.536C1428.28 375 1425.22 377.232 1420.76 377.232C1418.11 377.232 1415.72 376.323 1413.57 374.504C1411.42 372.52 1410.34 370.123 1410.34 367.312C1410.34 365.989 1410.59 364.584 1411.09 363.096L1456.47 242.072C1459.28 238.269 1462.59 236.368 1466.39 236.368C1470.36 236.368 1473.75 238.269 1476.56 242.072L1524.18 362.848ZM1489.95 331.352L1466.89 271.584L1444.32 331.352H1489.95Z"/>
</mask>
<path d="M1524.18 362.848C1524.67 364.171 1524.92 365.493 1524.92 366.816C1524.92 369.627 1523.85 372.024 1521.7 374.008C1519.55 375.827 1517.07 376.736 1514.26 376.736C1509.96 376.736 1506.98 374.669 1505.33 370.536L1497.64 351.192H1437.13L1429.94 370.536C1428.28 375 1425.22 377.232 1420.76 377.232C1418.11 377.232 1415.72 376.323 1413.57 374.504C1411.42 372.52 1410.34 370.123 1410.34 367.312C1410.34 365.989 1410.59 364.584 1411.09 363.096L1456.47 242.072C1459.28 238.269 1462.59 236.368 1466.39 236.368C1470.36 236.368 1473.75 238.269 1476.56 242.072L1524.18 362.848ZM1489.95 331.352L1466.89 271.584L1444.32 331.352H1489.95Z" fill="#0E39F2"/>
<path d="M1524.18 362.848L1584.1 340.376L1583.91 339.874L1583.72 339.374L1524.18 362.848ZM1521.7 374.008L1563.04 422.865L1564.09 421.972L1565.11 421.035L1521.7 374.008ZM1505.33 370.536L1445.85 394.173L1445.88 394.239L1445.91 394.305L1505.33 370.536ZM1497.64 351.192L1557.12 327.555L1541.07 287.192H1497.64V351.192ZM1437.13 351.192V287.192H1392.64L1377.14 328.889L1437.13 351.192ZM1429.94 370.536L1369.95 348.233L1369.93 348.27L1369.92 348.308L1429.94 370.536ZM1413.57 374.504L1370.16 421.531L1371.17 422.468L1372.23 423.361L1413.57 374.504ZM1411.09 363.096L1351.16 340.624L1350.75 341.733L1350.37 342.857L1411.09 363.096ZM1456.47 242.072L1405 204.031L1399.69 211.224L1396.55 219.6L1456.47 242.072ZM1476.56 242.072L1536.1 218.598L1533.02 210.785L1528.03 204.031L1476.56 242.072ZM1489.95 331.352V395.352H1583.25L1549.66 308.311L1489.95 331.352ZM1466.89 271.584L1526.6 248.543L1466.24 92.1302L1407.01 248.976L1466.89 271.584ZM1444.32 331.352L1384.45 308.744L1351.74 395.352H1444.32V331.352ZM1524.18 362.848L1464.25 385.32C1462.24 379.949 1460.92 373.676 1460.92 366.816H1524.92H1588.92C1588.92 357.31 1587.11 348.392 1584.1 340.376L1524.18 362.848ZM1524.92 366.816H1460.92C1460.92 359.838 1462.31 352.143 1465.71 344.542C1469.09 337.001 1473.73 331.187 1478.29 326.981L1521.7 374.008L1565.11 421.035C1579.78 407.493 1588.92 388.294 1588.92 366.816H1524.92ZM1521.7 374.008L1480.36 325.151C1484.63 321.535 1489.93 318.26 1496.19 315.966C1502.45 313.671 1508.63 312.736 1514.26 312.736V376.736V440.736C1532.23 440.736 1549.35 434.443 1563.04 422.865L1521.7 374.008ZM1514.26 376.736V312.736C1522.67 312.736 1534.2 314.905 1545.31 322.618C1556.25 330.218 1561.99 339.875 1564.75 346.767L1505.33 370.536L1445.91 394.305C1450.32 405.33 1458.38 418.087 1472.29 427.754C1486.38 437.534 1501.55 440.736 1514.26 440.736V376.736ZM1505.33 370.536L1564.8 346.899L1557.12 327.555L1497.64 351.192L1438.17 374.829L1445.85 394.173L1505.33 370.536ZM1497.64 351.192V287.192H1437.13V351.192V415.192H1497.64V351.192ZM1437.13 351.192L1377.14 328.889L1369.95 348.233L1429.94 370.536L1489.92 392.839L1497.12 373.495L1437.13 351.192ZM1429.94 370.536L1369.92 348.308C1372.34 341.772 1377.71 331.863 1388.68 323.859C1399.96 315.623 1411.93 313.232 1420.76 313.232V377.232V441.232C1434.05 441.232 1449.78 437.725 1464.13 427.257C1478.15 417.021 1485.88 403.764 1489.95 392.764L1429.94 370.536ZM1420.76 377.232V313.232C1434.27 313.232 1446.31 318.369 1454.91 325.647L1413.57 374.504L1372.23 423.361C1385.13 434.277 1401.96 441.232 1420.76 441.232V377.232ZM1413.57 374.504L1456.98 327.477C1461.54 331.683 1466.17 337.497 1469.55 345.038C1472.96 352.639 1474.34 360.334 1474.34 367.312H1410.34H1346.34C1346.34 388.79 1355.49 407.989 1370.16 421.531L1413.57 374.504ZM1410.34 367.312H1474.34C1474.34 374.01 1473.09 379.476 1471.8 383.335L1411.09 363.096L1350.37 342.857C1348.09 349.692 1346.34 357.968 1346.34 367.312H1410.34ZM1411.09 363.096L1471.01 385.568L1516.4 264.544L1456.47 242.072L1396.55 219.6L1351.16 340.624L1411.09 363.096ZM1456.47 242.072L1507.94 280.113C1505.32 283.66 1500.57 288.904 1492.96 293.276C1484.94 297.888 1475.72 300.368 1466.39 300.368V236.368V172.368C1437.35 172.368 1416.61 188.331 1405 204.031L1456.47 242.072ZM1466.39 236.368V300.368C1457.65 300.368 1448.68 298.142 1440.6 293.611C1432.87 289.277 1427.93 283.951 1425.09 280.113L1476.56 242.072L1528.03 204.031C1515.76 187.437 1494.69 172.368 1466.39 172.368V236.368ZM1476.56 242.072L1417.02 265.546L1464.64 386.322L1524.18 362.848L1583.72 339.374L1536.1 218.598L1476.56 242.072ZM1489.95 331.352L1549.66 308.311L1526.6 248.543L1466.89 271.584L1407.18 294.625L1430.24 354.393L1489.95 331.352ZM1466.89 271.584L1407.01 248.976L1384.45 308.744L1444.32 331.352L1504.19 353.96L1526.76 294.192L1466.89 271.584ZM1444.32 331.352V395.352H1489.95V331.352V267.352H1444.32V331.352Z" fill="#0E39F2" mask="url(#path-12-inside-6_436_18)"/>
<mask id="path-14-inside-7_436_18" fill="white">
<path d="M1647.07 250.752L1613.09 370.784C1611.77 375.248 1607.97 377.48 1601.69 377.48C1595.57 377.48 1591.85 375.331 1590.53 371.032L1552.58 251C1552.25 249.843 1552.09 248.603 1552.09 247.28C1552.09 244.469 1553.08 242.155 1555.06 240.336C1557.21 238.352 1559.61 237.36 1562.25 237.36C1566.88 237.36 1569.94 239.757 1571.43 244.552L1601.44 341.024L1627.97 244.8C1629.3 240.005 1632.27 237.608 1636.9 237.608C1639.55 237.608 1641.94 238.6 1644.09 240.584C1646.41 242.568 1647.57 244.965 1647.57 247.776C1647.57 248.768 1647.4 249.76 1647.07 250.752Z"/>
</mask>
<path d="M1647.07 250.752L1613.09 370.784C1611.77 375.248 1607.97 377.48 1601.69 377.48C1595.57 377.48 1591.85 375.331 1590.53 371.032L1552.58 251C1552.25 249.843 1552.09 248.603 1552.09 247.28C1552.09 244.469 1553.08 242.155 1555.06 240.336C1557.21 238.352 1559.61 237.36 1562.25 237.36C1566.88 237.36 1569.94 239.757 1571.43 244.552L1601.44 341.024L1627.97 244.8C1629.3 240.005 1632.27 237.608 1636.9 237.608C1639.55 237.608 1641.94 238.6 1644.09 240.584C1646.41 242.568 1647.57 244.965 1647.57 247.776C1647.57 248.768 1647.4 249.76 1647.07 250.752Z" fill="#0E39F2"/>
<path d="M1647.07 250.752L1586.35 230.513L1585.89 231.907L1585.49 233.321L1647.07 250.752ZM1613.09 370.784L1674.46 388.966L1674.57 388.591L1674.67 388.215L1613.09 370.784ZM1590.53 371.032L1651.7 352.211L1651.62 351.976L1651.55 351.741L1590.53 371.032ZM1552.58 251L1491.04 268.582L1491.29 269.44L1491.56 270.291L1552.58 251ZM1555.06 240.336L1598.31 287.514L1598.39 287.439L1598.47 287.363L1555.06 240.336ZM1571.43 244.552L1510.31 263.522L1510.31 263.541L1510.32 263.561L1571.43 244.552ZM1601.44 341.024L1540.33 360.033L1605.13 568.372L1663.14 358.038L1601.44 341.024ZM1627.97 244.8L1566.28 227.78L1566.28 227.786L1627.97 244.8ZM1644.09 240.584L1600.68 287.611L1601.55 288.41L1602.44 289.176L1644.09 240.584ZM1647.07 250.752L1585.49 233.321L1551.51 353.353L1613.09 370.784L1674.67 388.215L1708.65 268.183L1647.07 250.752ZM1613.09 370.784L1551.73 352.602C1555.4 340.227 1563.92 328.205 1576.85 320.611C1588.09 314.019 1598.01 313.48 1601.69 313.48V377.48V441.48C1611.64 441.48 1626.61 439.825 1641.65 431.001C1658.39 421.175 1669.47 405.805 1674.46 388.966L1613.09 370.784ZM1601.69 377.48V313.48C1605.37 313.48 1615.18 314.014 1626.33 320.453C1639.16 327.867 1647.85 339.716 1651.7 352.211L1590.53 371.032L1529.36 389.853C1534.52 406.646 1545.74 421.72 1562.29 431.283C1577.15 439.871 1591.89 441.48 1601.69 441.48V377.48ZM1590.53 371.032L1651.55 351.741L1613.61 231.709L1552.58 251L1491.56 270.291L1529.5 390.323L1590.53 371.032ZM1552.58 251L1614.12 233.418C1615.58 238.512 1616.09 243.238 1616.09 247.28H1552.09H1488.09C1488.09 253.967 1488.93 261.173 1491.04 268.582L1552.58 251ZM1552.09 247.28H1616.09C1616.09 253.534 1614.95 260.961 1611.66 268.647C1608.33 276.398 1603.54 282.718 1598.31 287.514L1555.06 240.336L1511.82 193.158C1495.96 207.693 1488.09 227.428 1488.09 247.28H1552.09ZM1555.06 240.336L1598.47 287.363C1594.7 290.847 1589.55 294.506 1582.94 297.241C1576.23 300.02 1569.16 301.36 1562.25 301.36V237.36V173.36C1541.77 173.36 1524.27 181.662 1511.65 193.309L1555.06 240.336ZM1562.25 237.36V301.36C1553.09 301.36 1540.32 298.765 1528.54 289.53C1517.21 280.653 1512.3 269.942 1510.31 263.522L1571.43 244.552L1632.55 225.582C1629.07 214.368 1621.88 200.06 1607.5 188.786C1592.66 177.154 1576.05 173.36 1562.25 173.36V237.36ZM1571.43 244.552L1510.32 263.561L1540.33 360.033L1601.44 341.024L1662.55 322.015L1632.54 225.543L1571.43 244.552ZM1601.44 341.024L1663.14 358.038L1689.67 261.814L1627.97 244.8L1566.28 227.786L1539.74 324.01L1601.44 341.024ZM1627.97 244.8L1689.67 261.819C1687.84 268.465 1683.05 279.815 1671.35 289.246C1659.2 299.032 1646 301.608 1636.9 301.608V237.608V173.608C1623.18 173.608 1606.17 177.383 1591.05 189.566C1576.37 201.394 1569.43 216.34 1566.28 227.78L1627.97 244.8ZM1636.9 237.608V301.608C1630 301.608 1622.93 300.267 1616.21 297.489C1609.6 294.754 1604.46 291.095 1600.68 287.611L1644.09 240.584L1687.5 193.557C1674.89 181.91 1657.39 173.608 1636.9 173.608V237.608ZM1644.09 240.584L1602.44 289.176C1597.87 285.253 1592.84 279.52 1589.06 271.694C1585.22 263.732 1583.57 255.455 1583.57 247.776H1647.57H1711.57C1711.57 224.564 1700.89 204.97 1685.74 191.992L1644.09 240.584ZM1647.57 247.776H1583.57C1583.57 241.525 1584.63 235.692 1586.35 230.513L1647.07 250.752L1707.79 270.991C1710.17 263.828 1711.57 256.011 1711.57 247.776H1647.57Z" fill="#0E39F2" mask="url(#path-14-inside-7_436_18)"/>
<mask id="path-16-inside-8_436_18" fill="white">
<path d="M1698.61 366.32C1698.61 373.264 1695.22 376.736 1688.44 376.736C1681.66 376.736 1678.27 373.264 1678.27 366.32V247.776C1678.27 240.832 1681.66 237.36 1688.44 237.36C1695.22 237.36 1698.61 240.832 1698.61 247.776V366.32Z"/>
</mask>
<path d="M1698.61 366.32C1698.61 373.264 1695.22 376.736 1688.44 376.736C1681.66 376.736 1678.27 373.264 1678.27 366.32V247.776C1678.27 240.832 1681.66 237.36 1688.44 237.36C1695.22 237.36 1698.61 240.832 1698.61 247.776V366.32Z" fill="#0E39F2"/>
<path d="M1698.61 366.32H1634.61C1634.61 360.309 1636.07 343.973 1650.27 329.426C1664.75 314.593 1681.57 312.736 1688.44 312.736V376.736V440.736C1702.09 440.736 1724 437.143 1741.86 418.838C1759.45 400.819 1762.61 379.275 1762.61 366.32H1698.61ZM1688.44 376.736V312.736C1695.31 312.736 1712.13 314.593 1726.61 329.426C1740.81 343.973 1742.27 360.309 1742.27 366.32H1678.27H1614.27C1614.27 379.275 1617.43 400.819 1635.02 418.838C1652.89 437.143 1674.79 440.736 1688.44 440.736V376.736ZM1678.27 366.32H1742.27V247.776H1678.27H1614.27V366.32H1678.27ZM1678.27 247.776H1742.27C1742.27 253.787 1740.81 270.123 1726.61 284.67C1712.13 299.503 1695.31 301.36 1688.44 301.36V237.36V173.36C1674.79 173.36 1652.89 176.953 1635.02 195.258C1617.43 213.277 1614.27 234.821 1614.27 247.776H1678.27ZM1688.44 237.36V301.36C1681.57 301.36 1664.75 299.503 1650.27 284.67C1636.07 270.123 1634.61 253.787 1634.61 247.776H1698.61H1762.61C1762.61 234.821 1759.45 213.277 1741.86 195.258C1724 176.953 1702.09 173.36 1688.44 173.36V237.36ZM1698.61 247.776H1634.61V366.32H1698.61H1762.61V247.776H1698.61Z" fill="#0E39F2" mask="url(#path-16-inside-8_436_18)"/>
<mask id="path-18-inside-9_436_18" fill="white">
<path d="M1835.69 325.896C1835.69 344.744 1830.57 358.715 1820.32 367.808C1813.04 374.256 1804.69 377.48 1795.27 377.48C1779.23 377.48 1765.76 369.957 1754.84 354.912C1744.59 341.024 1739.47 325.317 1739.47 307.792C1739.47 286.299 1744.76 268.856 1755.34 255.464C1765.43 242.733 1777.99 236.368 1793.04 236.368C1803.95 236.368 1812.55 238.6 1818.83 243.064C1822.8 245.709 1826.93 250.421 1831.23 257.2C1832.55 259.349 1833.21 261.499 1833.21 263.648C1833.21 266.293 1832.22 268.525 1830.24 270.344C1828.42 271.997 1826.27 272.824 1823.79 272.824C1820.48 272.824 1817.67 271.253 1815.36 268.112C1812.38 264.144 1809.82 261.416 1807.67 259.928C1804.2 257.779 1799.32 256.704 1793.04 256.704C1782.95 256.704 1774.85 261.416 1768.73 270.84C1762.78 280.099 1759.8 292.416 1759.8 307.792C1759.8 320.357 1762.86 331.517 1768.98 341.272C1775.76 352.184 1784.52 357.64 1795.27 357.64C1804.2 357.64 1810.15 353.341 1813.12 344.744C1814.61 340.28 1815.36 333.088 1815.36 323.168H1799.24C1792.62 323.168 1789.32 319.779 1789.32 313C1789.32 306.221 1792.62 302.832 1799.24 302.832H1835.69V325.896Z"/>
</mask>
<path d="M1835.69 325.896C1835.69 344.744 1830.57 358.715 1820.32 367.808C1813.04 374.256 1804.69 377.48 1795.27 377.48C1779.23 377.48 1765.76 369.957 1754.84 354.912C1744.59 341.024 1739.47 325.317 1739.47 307.792C1739.47 286.299 1744.76 268.856 1755.34 255.464C1765.43 242.733 1777.99 236.368 1793.04 236.368C1803.95 236.368 1812.55 238.6 1818.83 243.064C1822.8 245.709 1826.93 250.421 1831.23 257.2C1832.55 259.349 1833.21 261.499 1833.21 263.648C1833.21 266.293 1832.22 268.525 1830.24 270.344C1828.42 271.997 1826.27 272.824 1823.79 272.824C1820.48 272.824 1817.67 271.253 1815.36 268.112C1812.38 264.144 1809.82 261.416 1807.67 259.928C1804.2 257.779 1799.32 256.704 1793.04 256.704C1782.95 256.704 1774.85 261.416 1768.73 270.84C1762.78 280.099 1759.8 292.416 1759.8 307.792C1759.8 320.357 1762.86 331.517 1768.98 341.272C1775.76 352.184 1784.52 357.64 1795.27 357.64C1804.2 357.64 1810.15 353.341 1813.12 344.744C1814.61 340.28 1815.36 333.088 1815.36 323.168H1799.24C1792.62 323.168 1789.32 319.779 1789.32 313C1789.32 306.221 1792.62 302.832 1799.24 302.832H1835.69V325.896Z" fill="#0E39F2"/>
<path d="M1820.32 367.808L1862.77 415.702L1862.78 415.693L1862.79 415.685L1820.32 367.808ZM1754.84 354.912L1806.65 317.337L1806.5 317.12L1806.34 316.905L1754.84 354.912ZM1755.34 255.464L1705.17 215.722L1705.15 215.754L1705.12 215.787L1755.34 255.464ZM1818.83 243.064L1781.76 295.236L1782.54 295.787L1783.33 296.315L1818.83 243.064ZM1831.23 257.2L1885.73 223.658L1885.51 223.29L1885.28 222.925L1831.23 257.2ZM1830.24 270.344L1873.29 317.7L1873.39 317.611L1873.48 317.522L1830.24 270.344ZM1815.36 268.112L1866.88 230.147L1866.72 229.929L1866.56 229.712L1815.36 268.112ZM1807.67 259.928L1844.1 207.308L1842.75 206.374L1841.36 205.511L1807.67 259.928ZM1768.73 270.84L1715.05 235.994L1714.97 236.113L1714.9 236.232L1768.73 270.84ZM1768.98 341.272L1823.34 307.5L1823.27 307.385L1823.2 307.269L1768.98 341.272ZM1813.12 344.744L1873.6 365.679L1873.72 365.332L1873.84 364.983L1813.12 344.744ZM1815.36 323.168H1879.36V259.168H1815.36V323.168ZM1835.69 302.832H1899.69V238.832H1835.69V302.832ZM1835.69 325.896H1771.69C1771.69 329.716 1771.15 330.142 1771.76 328.467C1772.09 327.567 1772.72 326.187 1773.79 324.573C1774.88 322.938 1776.25 321.345 1777.85 319.931L1820.32 367.808L1862.79 415.685C1891.3 390.39 1899.69 355.89 1899.69 325.896H1835.69ZM1820.32 367.808L1777.86 319.914C1779.44 318.513 1782.01 316.723 1785.54 315.358C1789.11 313.982 1792.52 313.48 1795.27 313.48V377.48V441.48C1820.87 441.48 1844.19 432.168 1862.77 415.702L1820.32 367.808ZM1795.27 377.48V313.48C1796.31 313.48 1797.78 313.608 1799.53 314.053C1801.29 314.501 1802.92 315.171 1804.33 315.957C1807.2 317.558 1807.75 318.846 1806.65 317.337L1754.84 354.912L1703.04 392.487C1723.8 421.116 1755.26 441.48 1795.27 441.48V377.48ZM1754.84 354.912L1806.34 316.905C1804.34 314.204 1803.47 311.863 1803.47 307.792H1739.47H1675.47C1675.47 338.772 1684.84 367.844 1703.35 392.919L1754.84 354.912ZM1739.47 307.792H1803.47C1803.47 302.244 1804.16 298.9 1804.68 297.167C1804.94 296.313 1805.17 295.809 1805.3 295.558C1805.43 295.315 1805.51 295.2 1805.56 295.141L1755.34 255.464L1705.12 215.787C1683.51 243.139 1675.47 275.704 1675.47 307.792H1739.47ZM1755.34 255.464L1805.51 295.206C1805.68 294.985 1804.39 296.643 1801.25 298.234C1797.96 299.9 1794.86 300.368 1793.04 300.368V236.368V172.368C1756.72 172.368 1726.29 189.068 1705.17 215.722L1755.34 255.464ZM1793.04 236.368V300.368C1796 300.368 1789.97 301.067 1781.76 295.236L1818.83 243.064L1855.9 190.892C1835.13 176.133 1811.9 172.368 1793.04 172.368V236.368ZM1818.83 243.064L1783.33 296.315C1779.44 293.726 1777.34 291.41 1776.79 290.786C1776.17 290.08 1776.34 290.145 1777.18 291.475L1831.23 257.2L1885.28 222.925C1879.03 213.068 1869.15 199.694 1854.33 189.813L1818.83 243.064ZM1831.23 257.2L1776.72 290.742C1772.93 284.585 1769.21 275.272 1769.21 263.648H1833.21H1897.21C1897.21 247.725 1892.17 234.113 1885.73 223.658L1831.23 257.2ZM1833.21 263.648H1769.21C1769.21 256.769 1770.55 249.041 1773.98 241.313C1777.41 233.611 1782.17 227.588 1786.99 223.166L1830.24 270.344L1873.48 317.522C1888.43 303.821 1897.21 284.586 1897.21 263.648H1833.21ZM1830.24 270.344L1787.19 222.988C1791.74 218.843 1797.47 215.09 1804.29 212.47C1811.09 209.853 1817.78 208.824 1823.79 208.824V272.824V336.824C1842.03 336.824 1859.57 330.17 1873.29 317.7L1830.24 270.344ZM1823.79 272.824V208.824C1832.76 208.824 1842.02 211.083 1850.42 215.778C1858.49 220.285 1863.75 225.897 1866.88 230.147L1815.36 268.112L1763.83 306.077C1775.75 322.247 1796.32 336.824 1823.79 336.824V272.824ZM1815.36 268.112L1866.56 229.712C1862.46 224.25 1854.92 214.799 1844.1 207.308L1807.67 259.928L1771.24 312.548C1769.2 311.136 1767.68 309.862 1766.68 308.972C1765.67 308.065 1764.96 307.339 1764.56 306.909C1763.8 306.103 1763.66 305.85 1764.16 306.512L1815.36 268.112ZM1807.67 259.928L1841.36 205.511C1823.7 194.582 1805.31 192.704 1793.04 192.704V256.704V320.704C1792.67 320.704 1790.7 320.687 1787.63 320.011C1784.54 319.33 1779.58 317.808 1773.98 314.345L1807.67 259.928ZM1793.04 256.704V192.704C1758.51 192.704 1731.38 210.837 1715.05 235.994L1768.73 270.84L1822.41 305.686C1821.09 307.733 1817.76 311.964 1811.57 315.561C1805.11 319.319 1798.41 320.704 1793.04 320.704V256.704ZM1768.73 270.84L1714.9 236.232C1700.17 259.147 1695.8 284.822 1695.8 307.792H1759.8H1823.8C1823.8 304.133 1824.17 302.377 1824.25 302.053C1824.31 301.809 1823.99 303.232 1822.57 305.448L1768.73 270.84ZM1759.8 307.792H1695.8C1695.8 331.246 1701.67 354.406 1714.76 375.274L1768.98 341.272L1823.2 307.269C1823.32 307.461 1823.45 307.703 1823.57 307.979C1823.69 308.255 1823.77 308.495 1823.82 308.669C1823.87 308.841 1823.87 308.885 1823.85 308.769C1823.84 308.65 1823.8 308.334 1823.8 307.792H1759.8ZM1768.98 341.272L1714.62 375.044C1730.41 400.472 1757.78 421.64 1795.27 421.64V357.64V293.64C1801.34 293.64 1808.27 295.359 1814.46 299.219C1820.2 302.789 1822.79 306.612 1823.34 307.5L1768.98 341.272ZM1795.27 357.64V421.64C1810.22 421.64 1827.84 417.899 1843.9 406.299C1859.86 394.772 1868.85 379.41 1873.6 365.679L1813.12 344.744L1752.65 323.809C1754.42 318.676 1758.95 309.761 1768.96 302.533C1779.07 295.231 1789.24 293.64 1795.27 293.64V357.64ZM1813.12 344.744L1873.84 364.983C1878.8 350.099 1879.36 334.084 1879.36 323.168H1815.36H1751.36C1751.36 324.862 1751.32 326.235 1751.28 327.317C1751.23 328.408 1751.17 329.089 1751.14 329.416C1751.1 329.765 1751.11 329.534 1751.24 328.848C1751.31 328.489 1751.43 327.944 1751.6 327.244C1751.78 326.548 1752.04 325.619 1752.41 324.505L1813.12 344.744ZM1815.36 323.168V259.168H1799.24V323.168V387.168H1815.36V323.168ZM1799.24 323.168V259.168C1806.2 259.168 1823.09 261.051 1837.61 275.933C1851.84 290.522 1853.32 306.915 1853.32 313H1789.32H1725.32C1725.32 325.863 1728.45 347.34 1745.99 365.319C1763.81 383.59 1785.66 387.168 1799.24 387.168V323.168ZM1789.32 313H1853.32C1853.32 319.085 1851.84 335.477 1837.61 350.067C1823.09 364.949 1806.2 366.832 1799.24 366.832V302.832V238.832C1785.66 238.832 1763.81 242.41 1745.99 260.681C1728.45 278.66 1725.32 300.137 1725.32 313H1789.32ZM1799.24 302.832V366.832H1835.69V302.832V238.832H1799.24V302.832ZM1835.69 302.832H1771.69V325.896H1835.69H1899.69V302.832H1835.69Z" fill="#0E39F2" mask="url(#path-18-inside-9_436_18)"/>
<mask id="path-20-inside-10_436_18" fill="white">
<path d="M1984.23 362.848C1984.72 364.171 1984.97 365.493 1984.97 366.816C1984.97 369.627 1983.9 372.024 1981.75 374.008C1979.6 375.827 1977.12 376.736 1974.31 376.736C1970.01 376.736 1967.03 374.669 1965.38 370.536L1957.69 351.192H1897.18L1889.99 370.536C1888.33 375 1885.27 377.232 1880.81 377.232C1878.16 377.232 1875.77 376.323 1873.62 374.504C1871.47 372.52 1870.39 370.123 1870.39 367.312C1870.39 365.989 1870.64 364.584 1871.14 363.096L1916.52 242.072C1919.33 238.269 1922.64 236.368 1926.44 236.368C1930.41 236.368 1933.8 238.269 1936.61 242.072L1984.23 362.848ZM1950 331.352L1926.94 271.584L1904.37 331.352H1950Z"/>
</mask>
<path d="M1984.23 362.848C1984.72 364.171 1984.97 365.493 1984.97 366.816C1984.97 369.627 1983.9 372.024 1981.75 374.008C1979.6 375.827 1977.12 376.736 1974.31 376.736C1970.01 376.736 1967.03 374.669 1965.38 370.536L1957.69 351.192H1897.18L1889.99 370.536C1888.33 375 1885.27 377.232 1880.81 377.232C1878.16 377.232 1875.77 376.323 1873.62 374.504C1871.47 372.52 1870.39 370.123 1870.39 367.312C1870.39 365.989 1870.64 364.584 1871.14 363.096L1916.52 242.072C1919.33 238.269 1922.64 236.368 1926.44 236.368C1930.41 236.368 1933.8 238.269 1936.61 242.072L1984.23 362.848ZM1950 331.352L1926.94 271.584L1904.37 331.352H1950Z" fill="#0E39F2"/>
<path d="M1984.23 362.848L2044.15 340.376L2043.96 339.874L2043.77 339.374L1984.23 362.848ZM1981.75 374.008L2023.09 422.865L2024.14 421.972L2025.16 421.035L1981.75 374.008ZM1965.38 370.536L1905.9 394.173L1905.93 394.239L1905.96 394.305L1965.38 370.536ZM1957.69 351.192L2017.16 327.555L2001.12 287.192H1957.69V351.192ZM1897.18 351.192V287.192H1852.69L1837.19 328.889L1897.18 351.192ZM1889.99 370.536L1830 348.233L1829.98 348.27L1829.97 348.308L1889.99 370.536ZM1873.62 374.504L1830.21 421.531L1831.22 422.468L1832.28 423.361L1873.62 374.504ZM1871.14 363.096L1811.21 340.624L1810.8 341.733L1810.42 342.857L1871.14 363.096ZM1916.52 242.072L1865.05 204.031L1859.74 211.224L1856.6 219.6L1916.52 242.072ZM1936.61 242.072L1996.15 218.598L1993.07 210.785L1988.08 204.031L1936.61 242.072ZM1950 331.352V395.352H2043.3L2009.71 308.311L1950 331.352ZM1926.94 271.584L1986.65 248.543L1926.29 92.1302L1867.06 248.976L1926.94 271.584ZM1904.37 331.352L1844.5 308.744L1811.79 395.352H1904.37V331.352ZM1984.23 362.848L1924.3 385.32C1922.29 379.949 1920.97 373.676 1920.97 366.816H1984.97H2048.97C2048.97 357.31 2047.16 348.392 2044.15 340.376L1984.23 362.848ZM1984.97 366.816H1920.97C1920.97 359.838 1922.36 352.143 1925.76 344.542C1929.14 337.001 1933.78 331.187 1938.34 326.981L1981.75 374.008L2025.16 421.035C2039.83 407.493 2048.97 388.294 2048.97 366.816H1984.97ZM1981.75 374.008L1940.41 325.151C1944.68 321.535 1949.98 318.26 1956.24 315.966C1962.5 313.671 1968.68 312.736 1974.31 312.736V376.736V440.736C1992.28 440.736 2009.4 434.443 2023.09 422.865L1981.75 374.008ZM1974.31 376.736V312.736C1982.72 312.736 1994.25 314.905 2005.36 322.618C2016.3 330.218 2022.04 339.875 2024.8 346.767L1965.38 370.536L1905.96 394.305C1910.37 405.33 1918.43 418.087 1932.34 427.754C1946.43 437.534 1961.6 440.736 1974.31 440.736V376.736ZM1965.38 370.536L2024.85 346.899L2017.16 327.555L1957.69 351.192L1898.22 374.829L1905.9 394.173L1965.38 370.536ZM1957.69 351.192V287.192H1897.18V351.192V415.192H1957.69V351.192ZM1897.18 351.192L1837.19 328.889L1830 348.233L1889.99 370.536L1949.97 392.839L1957.17 373.495L1897.18 351.192ZM1889.99 370.536L1829.97 348.308C1832.39 341.772 1837.76 331.863 1848.73 323.859C1860.01 315.623 1871.98 313.232 1880.81 313.232V377.232V441.232C1894.1 441.232 1909.83 437.725 1924.18 427.257C1938.2 417.021 1945.93 403.764 1950 392.764L1889.99 370.536ZM1880.81 377.232V313.232C1894.32 313.232 1906.36 318.369 1914.96 325.647L1873.62 374.504L1832.28 423.361C1845.18 434.277 1862.01 441.232 1880.81 441.232V377.232ZM1873.62 374.504L1917.03 327.477C1921.59 331.683 1926.22 337.497 1929.6 345.038C1933.01 352.639 1934.39 360.334 1934.39 367.312H1870.39H1806.39C1806.39 388.79 1815.54 407.989 1830.21 421.531L1873.62 374.504ZM1870.39 367.312H1934.39C1934.39 374.01 1933.14 379.476 1931.85 383.335L1871.14 363.096L1810.42 342.857C1808.14 349.692 1806.39 357.968 1806.39 367.312H1870.39ZM1871.14 363.096L1931.06 385.568L1976.45 264.544L1916.52 242.072L1856.6 219.6L1811.21 340.624L1871.14 363.096ZM1916.52 242.072L1967.99 280.113C1965.37 283.66 1960.62 288.904 1953.01 293.276C1944.99 297.888 1935.77 300.368 1926.44 300.368V236.368V172.368C1897.4 172.368 1876.66 188.331 1865.05 204.031L1916.52 242.072ZM1926.44 236.368V300.368C1917.7 300.368 1908.73 298.142 1900.65 293.611C1892.92 289.277 1887.98 283.951 1885.14 280.113L1936.61 242.072L1988.08 204.031C1975.81 187.437 1954.74 172.368 1926.44 172.368V236.368ZM1936.61 242.072L1877.07 265.546L1924.69 386.322L1984.23 362.848L2043.77 339.374L1996.15 218.598L1936.61 242.072ZM1950 331.352L2009.71 308.311L1986.65 248.543L1926.94 271.584L1867.23 294.625L1890.29 354.393L1950 331.352ZM1926.94 271.584L1867.06 248.976L1844.5 308.744L1904.37 331.352L1964.24 353.96L1986.81 294.192L1926.94 271.584ZM1904.37 331.352V395.352H1950V331.352V267.352H1904.37V331.352Z" fill="#0E39F2" mask="url(#path-20-inside-10_436_18)"/>
<mask id="path-22-inside-11_436_18" fill="white">
<path d="M2108.61 259.184H2076.12V366.568C2076.12 373.843 2072.57 377.48 2065.46 377.48C2058.35 377.48 2054.79 373.843 2054.79 366.568V259.184H2022.3C2015.19 259.184 2011.64 255.547 2011.64 248.272C2011.64 241.163 2015.19 237.608 2022.3 237.608H2108.61C2115.88 237.608 2119.52 241.163 2119.52 248.272C2119.52 255.547 2115.88 259.184 2108.61 259.184Z"/>
</mask>
<path d="M2108.61 259.184H2076.12V366.568C2076.12 373.843 2072.57 377.48 2065.46 377.48C2058.35 377.48 2054.79 373.843 2054.79 366.568V259.184H2022.3C2015.19 259.184 2011.64 255.547 2011.64 248.272C2011.64 241.163 2015.19 237.608 2022.3 237.608H2108.61C2115.88 237.608 2119.52 241.163 2119.52 248.272C2119.52 255.547 2115.88 259.184 2108.61 259.184Z" fill="#0E39F2"/>
<path d="M2076.12 259.184V195.184H2012.12V259.184H2076.12ZM2054.79 259.184H2118.79V195.184H2054.79V259.184ZM2108.61 259.184V195.184H2076.12V259.184V323.184H2108.61V259.184ZM2076.12 259.184H2012.12V366.568H2076.12H2140.12V259.184H2076.12ZM2076.12 366.568H2012.12C2012.12 360.705 2013.55 344.483 2027.68 330.02C2042.08 315.286 2058.77 313.48 2065.46 313.48V377.48V441.48C2079.25 441.48 2101.27 437.856 2119.23 419.484C2136.91 401.384 2140.12 379.706 2140.12 366.568H2076.12ZM2065.46 377.48V313.48C2072.14 313.48 2088.83 315.286 2103.23 330.02C2117.36 344.483 2118.79 360.705 2118.79 366.568H2054.79H1990.79C1990.79 379.706 1994 401.384 2011.69 419.484C2029.64 437.856 2051.66 441.48 2065.46 441.48V377.48ZM2054.79 366.568H2118.79V259.184H2054.79H1990.79V366.568H2054.79ZM2054.79 259.184V195.184H2022.3V259.184V323.184H2054.79V259.184ZM2022.3 259.184V195.184C2028.99 195.184 2045.68 196.99 2060.08 211.724C2074.21 226.187 2075.64 242.409 2075.64 248.272H2011.64H1947.64C1947.64 261.41 1950.85 283.088 1968.53 301.188C1986.49 319.56 2008.51 323.184 2022.3 323.184V259.184ZM2011.64 248.272H2075.64C2075.64 254.583 2074.02 271.071 2059.56 285.529C2045.1 299.987 2028.61 301.608 2022.3 301.608V237.608V173.608C2008.88 173.608 1987.06 177.006 1969.05 195.019C1951.04 213.032 1947.64 234.852 1947.64 248.272H2011.64ZM2022.3 237.608V301.608H2108.61V237.608V173.608H2022.3V237.608ZM2108.61 237.608V301.608C2102.74 301.608 2086.52 300.18 2072.06 286.046C2057.33 271.646 2055.52 254.96 2055.52 248.272H2119.52H2183.52C2183.52 234.474 2179.9 212.457 2161.52 194.502C2143.42 176.814 2121.75 173.608 2108.61 173.608V237.608ZM2119.52 248.272H2055.52C2055.52 242.044 2057.12 225.618 2071.54 211.201C2085.95 196.784 2102.38 195.184 2108.61 195.184V259.184V323.184C2122.11 323.184 2143.99 319.765 2162.05 301.711C2180.1 283.657 2183.52 261.775 2183.52 248.272H2119.52Z" fill="#0E39F2" mask="url(#path-22-inside-11_436_18)"/>
<mask id="path-24-inside-12_436_18" fill="white">
<path d="M2241.43 307.296C2241.43 325.483 2236.88 341.437 2227.79 355.16C2217.87 370.04 2205.22 377.48 2189.84 377.48C2174.47 377.48 2161.82 369.957 2151.9 354.912C2142.81 341.189 2138.26 325.317 2138.26 307.296C2138.26 289.275 2142.97 273.485 2152.4 259.928C2162.48 245.213 2174.96 237.856 2189.84 237.856C2205.72 237.856 2218.53 245.213 2228.28 259.928C2237.05 273.155 2241.43 288.944 2241.43 307.296ZM2221.59 307.296C2221.59 294.235 2219.19 283.24 2214.4 274.312C2208.61 263.565 2200.43 258.192 2189.84 258.192C2179.76 258.192 2171.74 263.565 2165.79 274.312C2160.66 283.571 2158.1 294.565 2158.1 307.296C2158.1 320.027 2160.66 331.104 2165.79 340.528C2171.57 351.44 2179.59 356.896 2189.84 356.896C2200.09 356.896 2208.11 351.44 2213.9 340.528C2219.03 331.104 2221.59 320.027 2221.59 307.296Z"/>
</mask>
<path d="M2241.43 307.296C2241.43 325.483 2236.88 341.437 2227.79 355.16C2217.87 370.04 2205.22 377.48 2189.84 377.48C2174.47 377.48 2161.82 369.957 2151.9 354.912C2142.81 341.189 2138.26 325.317 2138.26 307.296C2138.26 289.275 2142.97 273.485 2152.4 259.928C2162.48 245.213 2174.96 237.856 2189.84 237.856C2205.72 237.856 2218.53 245.213 2228.28 259.928C2237.05 273.155 2241.43 288.944 2241.43 307.296ZM2221.59 307.296C2221.59 294.235 2219.19 283.24 2214.4 274.312C2208.61 263.565 2200.43 258.192 2189.84 258.192C2179.76 258.192 2171.74 263.565 2165.79 274.312C2160.66 283.571 2158.1 294.565 2158.1 307.296C2158.1 320.027 2160.66 331.104 2165.79 340.528C2171.57 351.44 2179.59 356.896 2189.84 356.896C2200.09 356.896 2208.11 351.44 2213.9 340.528C2219.03 331.104 2221.59 320.027 2221.59 307.296Z" fill="#0E39F2"/>
<path d="M2227.79 355.16L2281.04 390.661L2281.09 390.587L2281.14 390.512L2227.79 355.16ZM2151.9 354.912L2205.33 319.683L2205.29 319.621L2205.25 319.56L2151.9 354.912ZM2152.4 259.928L2204.95 296.457L2205.07 296.284L2205.19 296.11L2152.4 259.928ZM2228.28 259.928L2281.64 224.581L2281.63 224.573L2281.63 224.566L2228.28 259.928ZM2214.4 274.312L2270.78 244.032L2270.76 244.001L2270.75 243.97L2214.4 274.312ZM2165.79 274.312L2109.8 243.304L2109.79 243.316L2165.79 274.312ZM2165.79 340.528L2222.33 310.544L2222.17 310.246L2222.01 309.951L2165.79 340.528ZM2213.9 340.528L2157.68 309.951L2157.52 310.246L2157.36 310.544L2213.9 340.528ZM2241.43 307.296H2177.43C2177.43 314.278 2175.87 317.653 2174.44 319.808L2227.79 355.16L2281.14 390.512C2297.9 365.222 2305.43 336.688 2305.43 307.296H2241.43ZM2227.79 355.16L2174.54 319.659C2173.79 320.787 2174.78 318.87 2178.41 316.736C2182.4 314.389 2186.69 313.48 2189.84 313.48V377.48V441.48C2230.37 441.48 2261.5 419.976 2281.04 390.661L2227.79 355.16ZM2189.84 377.48V313.48C2193.13 313.48 2197.52 314.437 2201.54 316.832C2205.18 318.998 2206.14 320.912 2205.33 319.683L2151.9 354.912L2098.47 390.141C2117.87 419.564 2148.99 441.48 2189.84 441.48V377.48ZM2151.9 354.912L2205.25 319.56C2203.76 317.308 2202.26 313.984 2202.26 307.296H2138.26H2074.26C2074.26 336.65 2081.86 365.071 2098.55 390.264L2151.9 354.912ZM2138.26 307.296H2202.26C2202.26 301.081 2203.66 298.307 2204.95 296.457L2152.4 259.928L2099.85 223.399C2082.28 248.664 2074.26 277.468 2074.26 307.296H2138.26ZM2152.4 259.928L2205.19 296.11C2206.13 294.734 2205.29 296.463 2201.82 298.51C2197.94 300.796 2193.51 301.856 2189.84 301.856V237.856V173.856C2149.47 173.856 2118.91 195.579 2099.61 223.746L2152.4 259.928ZM2189.84 237.856V301.856C2187.45 301.856 2183.5 301.177 2179.49 298.875C2175.75 296.726 2174.5 294.623 2174.94 295.29L2228.28 259.928L2281.63 224.566C2261.58 194.331 2229.86 173.856 2189.84 173.856V237.856ZM2228.28 259.928L2174.93 295.275C2175.71 296.454 2177.43 299.496 2177.43 307.296H2241.43H2305.43C2305.43 278.392 2298.38 249.855 2281.64 224.581L2228.28 259.928ZM2221.59 307.296H2285.59C2285.59 286.635 2281.81 264.574 2270.78 244.032L2214.4 274.312L2158.01 304.592C2157.31 303.279 2157.19 302.566 2157.26 302.889C2157.34 303.26 2157.59 304.636 2157.59 307.296H2221.59ZM2214.4 274.312L2270.75 243.97C2255.87 216.348 2228.05 194.192 2189.84 194.192V258.192V322.192C2183.71 322.192 2175.98 320.442 2168.79 315.721C2162.06 311.303 2158.97 306.372 2158.05 304.654L2214.4 274.312ZM2189.84 258.192V194.192C2151.04 194.192 2124.12 217.457 2109.8 243.304L2165.79 274.312L2221.77 305.32C2221.13 306.484 2218.32 311.08 2211.89 315.389C2204.87 320.092 2196.89 322.192 2189.84 322.192V258.192ZM2165.79 274.312L2109.79 243.316C2098.45 263.812 2094.1 285.915 2094.1 307.296H2158.1H2222.1C2222.1 305.211 2222.31 304.204 2222.35 304.03C2222.38 303.905 2222.27 304.433 2221.78 305.308L2165.79 274.312ZM2158.1 307.296H2094.1C2094.1 328.715 2098.46 350.69 2109.57 371.105L2165.79 340.528L2222.01 309.951C2222.37 310.616 2222.43 310.966 2222.38 310.727C2222.31 310.443 2222.1 309.375 2222.1 307.296H2158.1ZM2165.79 340.528L2109.25 370.512C2123.41 397.214 2150.6 420.896 2189.84 420.896V356.896V292.896C2196.79 292.896 2204.92 294.973 2212.14 299.891C2218.78 304.406 2221.64 309.253 2222.33 310.544L2165.79 340.528ZM2189.84 356.896V420.896C2229.09 420.896 2256.28 397.214 2270.44 370.512L2213.9 340.528L2157.36 310.544C2158.04 309.253 2160.91 304.406 2167.54 299.891C2174.77 294.973 2182.9 292.896 2189.84 292.896V356.896ZM2213.9 340.528L2270.12 371.105C2281.23 350.69 2285.59 328.715 2285.59 307.296H2221.59H2157.59C2157.59 309.375 2157.38 310.443 2157.31 310.727C2157.26 310.966 2157.32 310.616 2157.68 309.951L2213.9 340.528Z" fill="#0E39F2" mask="url(#path-24-inside-12_436_18)"/>
<mask id="path-26-inside-13_436_18" fill="white">
<path d="M2366.05 277.288C2366.05 291.507 2361.34 302.253 2351.92 309.528C2345.64 314.323 2339.44 316.72 2333.32 316.72H2335.05L2364.07 360.864C2365.39 362.683 2366.05 364.667 2366.05 366.816C2366.05 369.627 2364.98 372.107 2362.83 374.256C2360.68 376.24 2358.28 377.232 2355.64 377.232C2352.66 377.232 2350.18 375.827 2348.2 373.016L2310.75 316.72H2288.43V366.816C2288.43 373.76 2285.12 377.232 2278.51 377.232C2271.9 377.232 2268.59 373.76 2268.59 366.816V237.608H2326.37C2337.45 237.608 2346.63 240.915 2353.9 247.528C2362 254.803 2366.05 264.723 2366.05 277.288ZM2346.21 277.288C2346.21 271.171 2344.23 266.459 2340.26 263.152C2336.46 259.845 2331.83 258.192 2326.37 258.192H2288.43V296.384H2333.32C2335.8 296.384 2338.36 295.061 2341.01 292.416C2344.48 288.779 2346.21 283.736 2346.21 277.288Z"/>
</mask>
<path d="M2366.05 277.288C2366.05 291.507 2361.34 302.253 2351.92 309.528C2345.64 314.323 2339.44 316.72 2333.32 316.72H2335.05L2364.07 360.864C2365.39 362.683 2366.05 364.667 2366.05 366.816C2366.05 369.627 2364.98 372.107 2362.83 374.256C2360.68 376.24 2358.28 377.232 2355.64 377.232C2352.66 377.232 2350.18 375.827 2348.2 373.016L2310.75 316.72H2288.43V366.816C2288.43 373.76 2285.12 377.232 2278.51 377.232C2271.9 377.232 2268.59 373.76 2268.59 366.816V237.608H2326.37C2337.45 237.608 2346.63 240.915 2353.9 247.528C2362 254.803 2366.05 264.723 2366.05 277.288ZM2346.21 277.288C2346.21 271.171 2344.23 266.459 2340.26 263.152C2336.46 259.845 2331.83 258.192 2326.37 258.192H2288.43V296.384H2333.32C2335.8 296.384 2338.36 295.061 2341.01 292.416C2344.48 288.779 2346.21 283.736 2346.21 277.288Z" fill="#0E39F2"/>
<path d="M2351.92 309.528L2390.75 360.405L2390.89 360.298L2391.03 360.19L2351.92 309.528ZM2335.05 316.72L2388.54 281.567L2369.57 252.72H2335.05V316.72ZM2364.07 360.864L2310.59 396.017L2311.42 397.283L2312.31 398.507L2364.07 360.864ZM2362.83 374.256L2406.24 421.283L2407.18 420.416L2408.08 419.511L2362.83 374.256ZM2348.2 373.016L2294.91 408.463L2295.4 409.2L2295.91 409.924L2348.2 373.016ZM2310.75 316.72L2364.04 281.273L2345.04 252.72H2310.75V316.72ZM2288.43 316.72V252.72H2224.43V316.72H2288.43ZM2268.59 237.608V173.608H2204.59V237.608H2268.59ZM2353.9 247.528L2310.85 294.884L2311 295.016L2311.14 295.147L2353.9 247.528ZM2340.26 263.152L2298.27 311.447L2298.77 311.888L2299.29 312.318L2340.26 263.152ZM2288.43 258.192V194.192H2224.43V258.192H2288.43ZM2288.43 296.384H2224.43V360.384H2288.43V296.384ZM2341.01 292.416L2386.26 337.671L2386.79 337.145L2387.3 336.606L2341.01 292.416ZM2366.05 277.288H2302.05C2302.05 277.383 2302.04 274.566 2303.91 270.312C2305.92 265.713 2309.16 261.684 2312.81 258.866L2351.92 309.528L2391.03 360.19C2419.28 338.383 2430.05 307.022 2430.05 277.288H2366.05ZM2351.92 309.528L2313.09 258.651C2314.69 257.434 2321.78 252.72 2333.32 252.72V316.72V380.72C2357.09 380.72 2376.58 371.212 2390.75 360.405L2351.92 309.528ZM2333.32 316.72V380.72H2335.05V316.72V252.72H2333.32V316.72ZM2335.05 316.72L2281.57 351.873L2310.59 396.017L2364.07 360.864L2417.55 325.711L2388.54 281.567L2335.05 316.72ZM2364.07 360.864L2312.31 398.507C2306.07 389.926 2302.05 378.845 2302.05 366.816H2366.05H2430.05C2430.05 350.488 2424.71 335.439 2415.83 323.221L2364.07 360.864ZM2366.05 366.816H2302.05C2302.05 359.824 2303.44 352.45 2306.52 345.337C2309.56 338.321 2313.66 332.916 2317.58 329.001L2362.83 374.256L2408.08 419.511C2421.16 406.438 2430.05 388.068 2430.05 366.816H2366.05ZM2362.83 374.256L2319.42 327.229C2323.19 323.745 2328.34 320.086 2334.95 317.351C2341.66 314.573 2348.73 313.232 2355.64 313.232V377.232V441.232C2376.13 441.232 2393.62 432.93 2406.24 421.283L2362.83 374.256ZM2355.64 377.232V313.232C2364.7 313.232 2374.29 315.502 2383.1 320.497C2391.59 325.309 2397.14 331.374 2400.48 336.108L2348.2 373.016L2295.91 409.924C2307.74 426.675 2328.4 441.232 2355.64 441.232V377.232ZM2348.2 373.016L2401.49 337.569L2364.04 281.273L2310.75 316.72L2257.46 352.167L2294.91 408.463L2348.2 373.016ZM2310.75 316.72V252.72H2288.43V316.72V380.72H2310.75V316.72ZM2288.43 316.72H2224.43V366.816H2288.43H2352.43V316.72H2288.43ZM2288.43 366.816H2224.43C2224.43 361.181 2225.72 345.071 2239.61 330.49C2254.05 315.325 2271.13 313.232 2278.51 313.232V377.232V441.232C2292.5 441.232 2314.55 437.403 2332.29 418.766C2349.49 400.713 2352.43 379.395 2352.43 366.816H2288.43ZM2278.51 377.232V313.232C2285.89 313.232 2302.97 315.325 2317.41 330.49C2331.3 345.071 2332.59 361.181 2332.59 366.816H2268.59H2204.59C2204.59 379.395 2207.53 400.713 2224.73 418.766C2242.47 437.403 2264.52 441.232 2278.51 441.232V377.232ZM2268.59 366.816H2332.59V237.608H2268.59H2204.59V366.816H2268.59ZM2268.59 237.608V301.608H2326.37V237.608V173.608H2268.59V237.608ZM2326.37 237.608V301.608C2325.51 301.608 2323.11 301.468 2319.87 300.298C2316.5 299.084 2313.37 297.174 2310.85 294.884L2353.9 247.528L2396.95 200.172C2376.39 181.474 2351.2 173.608 2326.37 173.608V237.608ZM2353.9 247.528L2311.14 295.147C2308.12 292.43 2305.46 288.761 2303.77 284.618C2302.16 280.691 2302.05 277.891 2302.05 277.288H2366.05H2430.05C2430.05 249.64 2420.42 221.241 2396.66 199.909L2353.9 247.528ZM2346.21 277.288H2410.21C2410.21 256.055 2402.53 231.734 2381.23 213.986L2340.26 263.152L2299.29 312.318C2293.49 307.489 2288.76 301.18 2285.74 294.002C2282.84 287.112 2282.21 281.117 2282.21 277.288H2346.21ZM2340.26 263.152L2382.26 214.857C2365.81 200.553 2345.88 194.192 2326.37 194.192V258.192V322.192C2322.57 322.192 2317.72 321.6 2312.41 319.703C2307.03 317.78 2302.23 314.892 2298.27 311.447L2340.26 263.152ZM2326.37 258.192V194.192H2288.43V258.192V322.192H2326.37V258.192ZM2288.43 258.192H2224.43V296.384H2288.43H2352.43V258.192H2288.43ZM2288.43 296.384V360.384H2333.32V296.384V232.384H2288.43V296.384ZM2333.32 296.384V360.384C2359.72 360.384 2377.63 346.301 2386.26 337.671L2341.01 292.416L2295.75 247.161C2299.09 243.822 2311.88 232.384 2333.32 232.384V296.384ZM2341.01 292.416L2387.3 336.606C2405.08 317.975 2410.21 295.363 2410.21 277.288H2346.21H2282.21C2282.21 272.109 2283.87 259.582 2294.71 248.226L2341.01 292.416Z" fill="#0E39F2" mask="url(#path-26-inside-13_436_18)"/>
</svg>
