<?xml version="1.0" encoding="UTF-8"?>
<!-- Generator: Adobe Illustrator 25.0.0, SVG Export Plug-In . SVG Version: 6.00 Build 0)  -->
<svg version="1.1" id="Ebene_1" xmlns="http://www.w3.org/2000/svg" xmlns:xlink="http://www.w3.org/1999/xlink" x="0px" y="0px" viewBox="0 0 209.8 232.4" style="enable-background:new 0 0 209.8 232.4;" xml:space="preserve">
<style type="text/css">
	.st0{fill:#8E0528;}
</style>
<g id="Logo">
	<polygon class="st0" points="133.2,113.6 153.1,170.3 133.2,170.3 123.7,143.1 114.8,170.3 95,170.3 86.1,143.1 76.5,170.3    56.7,170.3 76.5,113.6 95.3,113.6 104.9,140.8 114.5,113.6  "/>
	<g>
		<polygon points="28.5,193 32,193 33.7,198.3 35.2,193 38.7,193 40.3,198.3 41.9,193 45.4,193 41.9,204.1 38.7,204.1 37,198.8     35.3,204.1 32,204.1   "/>
		<polygon points="66.4,201.4 61.7,201.4 61.7,193 58.1,193 58.1,204.1 66.4,204.1   "/>
		<g>
			<path d="M174.4,199.8h1.1l1.7,4.2h4l-2.1-4.8c1.4-0.6,2.1-1.5,2.1-2.9c0-1.1-0.5-2.1-1.4-2.7c-0.9-0.6-2-0.7-3.1-0.7h-6V204h3.7     V199.8z M174.4,195.3h1.5c0.3,0,0.7,0,1,0.1c0.4,0.2,0.6,0.5,0.6,0.9c0,1-0.9,1.1-1.7,1.1h-1.3v-2.1H174.4z"/>
		</g>
		<polygon points="168.7,201.4 163.4,201.4 163.4,199.6 167.7,199.6 167.7,197.2 163.4,197.2 163.4,195.5 168.7,195.5 168.7,193     159.8,193 159.8,204.1 168.7,204.1   "/>
		<polygon points="158.4,201.4 153.8,201.4 153.8,193 150.1,193 150.1,204.1 158.4,204.1   "/>
		<polygon points="148.6,201.4 143.9,201.4 143.9,193 140.3,193 140.3,204.1 148.6,204.1   "/>
		<g>
			<path d="M98,201.4c-0.3,0.3-0.9,0.5-1.3,0.5c-0.8,0-1.5-0.4-1.5-1.2c0-0.6,0.3-1,0.9-1.2L98,201.4z M96.6,195.5     c0-0.5,0.4-0.7,0.8-0.7c0.5,0,0.9,0.3,0.9,0.8s-0.4,0.9-0.9,1C97.1,196.4,96.6,196,96.6,195.5 M98.8,198.3     c1.3-0.4,2.2-1.4,2.2-2.7c0-2-1.9-2.7-3.7-2.7c-1.9,0-3.9,0.7-3.9,2.8c0,0.9,0.4,1.5,1,2.2c-1.6,0.5-2.7,1.4-2.7,3.1     c0,2.5,2.5,3.4,4.8,3.4c1.1,0,2.6-0.2,3.4-0.9c0.9,0.6,1.7,0.9,2.8,0.9c0.5,0,0.9-0.1,1.4-0.2v-2.4c-0.3,0-0.6,0-0.8,0     c-0.4,0-0.8,0-1.2-0.3c1-0.9,1.6-2.2,1.9-3.4l-3.1-0.3c-0.2,0.7-0.4,1.4-0.9,1.9L98.8,198.3z"/>
		</g>
		<polygon points="85,199.9 85,197.4 81.2,197.4 81.2,195.6 86.2,195.6 86.2,193 77.6,193 77.6,204.1 81.2,204.1 81.2,199.9   "/>
		<polygon points="75.2,199.9 75.2,197.4 71.3,197.4 71.3,195.6 76.4,195.6 76.4,193 67.8,193 67.8,204.1 71.3,204.1 71.3,199.9       "/>
		<polygon points="120.7,193 118.6,198.4 116.4,193 112.6,193 110.7,204.1 114.3,204.1 115.2,197.9 117.6,204.1 119.7,204.1     122,197.9 123,204.1 126.5,204.1 124.5,193   "/>
		<g>
			<path d="M134.6,193v6.9c0,0.4,0,0.9-0.2,1.2c0,0.1-0.1,0.1-0.2,0.2c-0.3,0.2-0.8,0.3-1.2,0.3s-0.9-0.1-1.2-0.3     c-0.1,0-0.1-0.1-0.2-0.2c-0.2-0.3-0.2-0.8-0.2-1.2V193h-3.7v7.3c0,1.3,0.2,2.4,1.5,3.2c0.9,0.6,2.2,0.8,3.7,0.8     c1.6,0,2.8-0.2,3.7-0.8c1.3-0.8,1.5-1.8,1.5-3.2V193H134.6z"/>
			<path d="M134.9,191.5c0.6,0,1.1-0.5,1.1-1.1s-0.5-1.1-1.1-1.1s-1.1,0.5-1.1,1.1C133.7,191,134.2,191.5,134.9,191.5"/>
			<path d="M131.2,191.5c0.6,0,1.2-0.5,1.2-1.1s-0.5-1.1-1.1-1.1s-1.1,0.5-1.1,1.1C130.1,191,130.6,191.5,131.2,191.5"/>
			<path d="M51.1,192.9c-3.6,0-5.7,2.4-5.7,5.8c0,3.2,2.1,5.7,5.7,5.7c3.6,0,5.7-2.5,5.7-5.7C56.8,195.3,54.7,192.9,51.1,192.9      M51.1,195.4c1.6,0,1.8,2.2,1.8,3.3s-0.1,3.1-1.8,3.1s-1.8-2.1-1.8-3.1C49.3,197.6,49.5,195.4,51.1,195.4"/>
		</g>
	</g>
	<polygon class="st0" points="133.2,85.3 153.1,28.6 133.2,28.6 123.7,55.8 114.8,28.6 95,28.6 86.1,55.8 76.5,28.6 56.7,28.6    76.5,85.3 95.3,85.3 104.9,58 114.5,85.3  "/>
	<rect x="56.7" y="96.6" width="96.4" height="5.7"/>
</g>
<g id="Hilfslinien">
</g>
</svg>